<svg width="24" height="24" viewBox="0 0 24 24" fill="none" xmlns="http://www.w3.org/2000/svg">
<path d="M13.4569 2.01172C18.153 2.24999 21.8876 6.13339 21.8876 10.8887L21.8758 11.3457C21.6377 16.0417 17.7549 19.776 12.9999 19.7764L12.5419 19.7646C10.6252 19.6675 8.86952 18.9618 7.46178 17.8389L3.7069 21.5947C3.3164 21.9851 2.68333 21.9851 2.29283 21.5947C1.90235 21.2042 1.90243 20.5712 2.29283 20.1807L6.04772 16.4248C4.9251 15.0172 4.22008 13.262 4.12291 11.3457L4.11119 10.8887C4.11119 5.97985 8.09104 2 12.9999 2L13.4569 2.01172ZM12.9999 4C9.19561 4 6.11119 7.08442 6.11119 10.8887C6.11131 12.7094 6.81861 14.3642 7.97252 15.5957C8.03577 15.6352 8.09625 15.6813 8.15123 15.7363C8.20587 15.791 8.25154 15.8512 8.29088 15.9141C9.52274 17.0685 11.1785 17.7764 12.9999 17.7764C16.8036 17.7759 19.8873 14.6925 19.8876 10.8887C19.8876 7.08468 16.8038 4.00042 12.9999 4Z" fill="#242424"/>
</svg>
