<svg width="48" height="48" viewBox="0 0 48 48" fill="none" xmlns="http://www.w3.org/2000/svg">
<rect width="48" height="48" rx="8" fill="#F7F7F9"/>
<path d="M35.7955 20.1191C35.648 18.6962 35.3308 17.1233 34.1633 16.2967C33.2591 15.6557 32.0705 15.632 30.9609 15.6333C28.6154 15.6347 26.2685 15.6373 23.923 15.6386C21.6669 15.6412 19.4109 15.6426 17.1549 15.6452C16.2124 15.6465 15.2963 15.5728 14.421 15.9809C13.6694 16.331 13.0811 16.997 12.727 17.738C12.2361 18.7686 12.1334 19.9361 12.0742 21.076C11.9649 23.1517 11.9768 25.2327 12.1071 27.3071C12.2032 28.8208 12.4467 30.4937 13.6168 31.4585C14.654 32.3127 16.1176 32.3549 17.4628 32.3562C21.7327 32.3601 26.0039 32.3641 30.2752 32.3667C30.8227 32.368 31.394 32.3575 31.952 32.297C33.0498 32.1785 34.0962 31.8639 34.8017 31.0505C35.5138 30.2305 35.6967 29.0893 35.8047 28.0086C36.0679 25.3867 36.0653 22.7397 35.7955 20.1191ZM21.4537 27.6756V20.3244L27.8191 23.9994L21.4537 27.6756Z" fill="#B9B4C0"/>
</svg>
